<?xml version="1.0" encoding="UTF-8" standalone="no"?>
<!DOCTYPE svg PUBLIC "-//W3C//DTD SVG 1.1//EN"
 "http://www.w3.org/Graphics/SVG/1.1/DTD/svg11.dtd">
<!-- Generated by graphviz version 2.38.0 (20140413.2041)
 -->
<!-- Title: models_diagram Pages: 1 -->
<svg width="1971pt" height="1662pt"
 viewBox="0.00 0.00 1971.00 1662.00" xmlns="http://www.w3.org/2000/svg" xmlns:xlink="http://www.w3.org/1999/xlink">
<g id="graph0" class="graph" transform="scale(1 1) rotate(0) translate(4 1658)">
<title>models_diagram</title>
<polygon fill="none" stroke="none" points="-4,4 -4,-1658 1967,-1658 1967,4 -4,4"/>
<!-- _diagram_info -->
<g id="node1" class="node"><title>_diagram_info</title>
<text text-anchor="start" x="919.5" y="-1565.1" font-family="Times,serif" font-size="13.00">Models diagram</text>
<text text-anchor="start" x="919.5" y="-1551.1" font-family="Times,serif" font-size="13.00">Date: Dec 09 2015 &#45; 00:53</text>
<text text-anchor="start" x="919.5" y="-1537.1" font-family="Times,serif" font-size="13.00">Migration version: 20150514160849</text>
<text text-anchor="start" x="919.5" y="-1523.1" font-family="Times,serif" font-size="13.00">Generated by RailRoady 1.4.1</text>
<text text-anchor="start" x="919.5" y="-1509.1" font-family="Times,serif" font-size="13.00">http://railroady.prestonlee.com</text>
</g>
<!-- BaseCode -->
<g id="node2" class="node"><title>BaseCode</title>
<path fill="none" stroke="black" d="M1108,-386C1108,-386 1233,-386 1233,-386 1239,-386 1245,-392 1245,-398 1245,-398 1245,-510 1245,-510 1245,-516 1239,-522 1233,-522 1233,-522 1108,-522 1108,-522 1102,-522 1096,-516 1096,-510 1096,-510 1096,-398 1096,-398 1096,-392 1102,-386 1108,-386"/>
<text text-anchor="middle" x="1170.5" y="-506.8" font-family="Times,serif" font-size="14.00">BaseCode</text>
<polyline fill="none" stroke="black" points="1096,-499 1245,-499 "/>
<text text-anchor="start" x="1104" y="-483.8" font-family="Times,serif" font-size="14.00">id :int(11)</text>
<text text-anchor="start" x="1104" y="-468.8" font-family="Times,serif" font-size="14.00">sub_product_id :int(11)</text>
<text text-anchor="start" x="1104" y="-453.8" font-family="Times,serif" font-size="14.00">vendor_id :int(11)</text>
<text text-anchor="start" x="1104" y="-438.8" font-family="Times,serif" font-size="14.00">article :varchar(255)</text>
<text text-anchor="start" x="1104" y="-423.8" font-family="Times,serif" font-size="14.00">price :int(11)</text>
<text text-anchor="start" x="1104" y="-408.8" font-family="Times,serif" font-size="14.00">created_at :datetime</text>
<text text-anchor="start" x="1104" y="-393.8" font-family="Times,serif" font-size="14.00">updated_at :datetime</text>
</g>
<!-- CurrencyVendor -->
<g id="node7" class="node"><title>CurrencyVendor</title>
<path fill="none" stroke="black" d="M1218.5,-167C1218.5,-167 1328.5,-167 1328.5,-167 1334.5,-167 1340.5,-173 1340.5,-179 1340.5,-179 1340.5,-291 1340.5,-291 1340.5,-297 1334.5,-303 1328.5,-303 1328.5,-303 1218.5,-303 1218.5,-303 1212.5,-303 1206.5,-297 1206.5,-291 1206.5,-291 1206.5,-179 1206.5,-179 1206.5,-173 1212.5,-167 1218.5,-167"/>
<text text-anchor="middle" x="1273.5" y="-287.8" font-family="Times,serif" font-size="14.00">CurrencyVendor</text>
<polyline fill="none" stroke="black" points="1206.5,-280 1340.5,-280 "/>
<text text-anchor="start" x="1214.5" y="-264.8" font-family="Times,serif" font-size="14.00">id :int(11)</text>
<text text-anchor="start" x="1214.5" y="-249.8" font-family="Times,serif" font-size="14.00">vendor_id :int(11)</text>
<text text-anchor="start" x="1214.5" y="-234.8" font-family="Times,serif" font-size="14.00">currency_id :int(11)</text>
<text text-anchor="start" x="1214.5" y="-219.8" font-family="Times,serif" font-size="14.00">value :int(11)</text>
<text text-anchor="start" x="1214.5" y="-204.8" font-family="Times,serif" font-size="14.00">primary :tinyint(1)</text>
<text text-anchor="start" x="1214.5" y="-189.8" font-family="Times,serif" font-size="14.00">created_at :datetime</text>
<text text-anchor="start" x="1214.5" y="-174.8" font-family="Times,serif" font-size="14.00">updated_at :datetime</text>
</g>
<!-- BaseCode&#45;&gt;CurrencyVendor -->
<g id="edge1" class="edge"><title>BaseCode&#45;&gt;CurrencyVendor</title>
<path fill="none" stroke="#1761c6" d="M1206.69,-376.765C1216.59,-355.889 1227.34,-333.26 1237.25,-312.376"/>
<polygon fill="#1761c6" stroke="#1761c6" points="1206.67,-376.792 1198.32,-383.896 1204.53,-381.309 1202.38,-385.826 1202.38,-385.826 1202.38,-385.826 1204.53,-381.309 1206.45,-387.756 1206.67,-376.792 1206.67,-376.792"/>
<polygon fill="#1761c6" stroke="#1761c6" points="1237.3,-312.264 1245.65,-305.16 1239.44,-307.747 1241.59,-303.23 1241.59,-303.23 1241.59,-303.23 1239.44,-307.747 1237.52,-301.301 1237.3,-312.264 1237.3,-312.264"/>
</g>
<!-- BaseReject -->
<g id="node3" class="node"><title>BaseReject</title>
<path fill="none" stroke="black" d="M140.5,-990.5C140.5,-990.5 250.5,-990.5 250.5,-990.5 256.5,-990.5 262.5,-996.5 262.5,-1002.5 262.5,-1002.5 262.5,-1129.5 262.5,-1129.5 262.5,-1135.5 256.5,-1141.5 250.5,-1141.5 250.5,-1141.5 140.5,-1141.5 140.5,-1141.5 134.5,-1141.5 128.5,-1135.5 128.5,-1129.5 128.5,-1129.5 128.5,-1002.5 128.5,-1002.5 128.5,-996.5 134.5,-990.5 140.5,-990.5"/>
<text text-anchor="middle" x="195.5" y="-1126.3" font-family="Times,serif" font-size="14.00">BaseReject</text>
<polyline fill="none" stroke="black" points="128.5,-1118.5 262.5,-1118.5 "/>
<text text-anchor="start" x="136.5" y="-1103.3" font-family="Times,serif" font-size="14.00">id :int(11)</text>
<text text-anchor="start" x="136.5" y="-1088.3" font-family="Times,serif" font-size="14.00">vendor_id :int(11)</text>
<text text-anchor="start" x="136.5" y="-1073.3" font-family="Times,serif" font-size="14.00">name :varchar(255)</text>
<text text-anchor="start" x="136.5" y="-1058.3" font-family="Times,serif" font-size="14.00">article :varchar(255)</text>
<text text-anchor="start" x="136.5" y="-1043.3" font-family="Times,serif" font-size="14.00">price :int(11)</text>
<text text-anchor="start" x="136.5" y="-1028.3" font-family="Times,serif" font-size="14.00">product_id :int(11)</text>
<text text-anchor="start" x="136.5" y="-1013.3" font-family="Times,serif" font-size="14.00">created_at :datetime</text>
<text text-anchor="start" x="136.5" y="-998.3" font-family="Times,serif" font-size="14.00">updated_at :datetime</text>
</g>
<!-- Filter -->
<g id="node8" class="node"><title>Filter</title>
<path fill="none" stroke="black" d="M407.5,-831.5C407.5,-831.5 517.5,-831.5 517.5,-831.5 523.5,-831.5 529.5,-837.5 529.5,-843.5 529.5,-843.5 529.5,-910.5 529.5,-910.5 529.5,-916.5 523.5,-922.5 517.5,-922.5 517.5,-922.5 407.5,-922.5 407.5,-922.5 401.5,-922.5 395.5,-916.5 395.5,-910.5 395.5,-910.5 395.5,-843.5 395.5,-843.5 395.5,-837.5 401.5,-831.5 407.5,-831.5"/>
<text text-anchor="middle" x="462.5" y="-907.3" font-family="Times,serif" font-size="14.00">Filter</text>
<polyline fill="none" stroke="black" points="395.5,-899.5 529.5,-899.5 "/>
<text text-anchor="start" x="403.5" y="-884.3" font-family="Times,serif" font-size="14.00">id :int(11)</text>
<text text-anchor="start" x="403.5" y="-869.3" font-family="Times,serif" font-size="14.00">name :varchar(255)</text>
<text text-anchor="start" x="403.5" y="-854.3" font-family="Times,serif" font-size="14.00">created_at :datetime</text>
<text text-anchor="start" x="403.5" y="-839.3" font-family="Times,serif" font-size="14.00">updated_at :datetime</text>
</g>
<!-- BaseReject&#45;&gt;Filter -->
<g id="edge3" class="edge"><title>BaseReject&#45;&gt;Filter</title>
<path fill="none" stroke="#e65347" d="M270.734,-1012.31C308.227,-986.049 353.348,-954.448 390.4,-928.497"/>
<polygon fill="#e65347" stroke="#e65347" points="270.722,-1012.32 259.949,-1014.37 266.626,-1015.19 262.531,-1018.05 262.531,-1018.05 262.531,-1018.05 266.626,-1015.19 265.112,-1021.74 270.722,-1012.32 270.722,-1012.32"/>
<polygon fill="#e65347" stroke="#e65347" points="390.471,-928.447 401.244,-926.396 394.567,-925.579 398.662,-922.71 398.662,-922.71 398.662,-922.71 394.567,-925.579 396.081,-919.024 390.471,-928.447 390.471,-928.447"/>
</g>
<!-- FiltersReject -->
<g id="node12" class="node"><title>FiltersReject</title>
<path fill="none" stroke="black" d="M12,-0.5C12,-0.5 131,-0.5 131,-0.5 137,-0.5 143,-6.5 143,-12.5 143,-12.5 143,-109.5 143,-109.5 143,-115.5 137,-121.5 131,-121.5 131,-121.5 12,-121.5 12,-121.5 6,-121.5 0,-115.5 0,-109.5 0,-109.5 0,-12.5 0,-12.5 0,-6.5 6,-0.5 12,-0.5"/>
<text text-anchor="middle" x="71.5" y="-106.3" font-family="Times,serif" font-size="14.00">FiltersReject</text>
<polyline fill="none" stroke="black" points="0,-98.5 143,-98.5 "/>
<text text-anchor="start" x="8" y="-83.3" font-family="Times,serif" font-size="14.00">id :int(11)</text>
<text text-anchor="start" x="8" y="-68.3" font-family="Times,serif" font-size="14.00">base_reject_id :int(11)</text>
<text text-anchor="start" x="8" y="-53.3" font-family="Times,serif" font-size="14.00">filter_id :int(11)</text>
<text text-anchor="start" x="8" y="-38.3" font-family="Times,serif" font-size="14.00">value_id :int(11)</text>
<text text-anchor="start" x="8" y="-23.3" font-family="Times,serif" font-size="14.00">created_at :datetime</text>
<text text-anchor="start" x="8" y="-8.3" font-family="Times,serif" font-size="14.00">updated_at :datetime</text>
</g>
<!-- BaseReject&#45;&gt;FiltersReject -->
<g id="edge2" class="edge"><title>BaseReject&#45;&gt;FiltersReject</title>
<path fill="none" stroke="#aa1f08" d="M122.944,-999.058C94.4829,-966.035 68.5,-923.442 68.5,-878 68.5,-878 68.5,-878 68.5,-234 68.5,-200.459 69.0773,-163.246 69.7255,-132.036"/>
<ellipse fill="none" stroke="#aa1f08" cx="125.636" cy="-1002.11" rx="4.00002" ry="4.00002"/>
<polygon fill="#aa1f08" stroke="#aa1f08" points="69.7327,-131.694 74.4462,-121.793 69.84,-126.695 69.9473,-121.696 69.9473,-121.696 69.9473,-121.696 69.84,-126.695 65.4483,-121.599 69.7327,-131.694 69.7327,-131.694"/>
</g>
<!-- Value -->
<g id="node23" class="node"><title>Value</title>
<path fill="none" stroke="black" d="M298.5,-189.5C298.5,-189.5 408.5,-189.5 408.5,-189.5 414.5,-189.5 420.5,-195.5 420.5,-201.5 420.5,-201.5 420.5,-268.5 420.5,-268.5 420.5,-274.5 414.5,-280.5 408.5,-280.5 408.5,-280.5 298.5,-280.5 298.5,-280.5 292.5,-280.5 286.5,-274.5 286.5,-268.5 286.5,-268.5 286.5,-201.5 286.5,-201.5 286.5,-195.5 292.5,-189.5 298.5,-189.5"/>
<text text-anchor="middle" x="353.5" y="-265.3" font-family="Times,serif" font-size="14.00">Value</text>
<polyline fill="none" stroke="black" points="286.5,-257.5 420.5,-257.5 "/>
<text text-anchor="start" x="294.5" y="-242.3" font-family="Times,serif" font-size="14.00">id :int(11)</text>
<text text-anchor="start" x="294.5" y="-227.3" font-family="Times,serif" font-size="14.00">name :varchar(255)</text>
<text text-anchor="start" x="294.5" y="-212.3" font-family="Times,serif" font-size="14.00">created_at :datetime</text>
<text text-anchor="start" x="294.5" y="-197.3" font-family="Times,serif" font-size="14.00">updated_at :datetime</text>
</g>
<!-- BaseReject&#45;&gt;Value -->
<g id="edge4" class="edge"><title>BaseReject&#45;&gt;Value</title>
<path fill="none" stroke="#58fda8" d="M135.192,-981.559C133.532,-978.377 131.961,-975.185 130.5,-972 112.526,-932.807 106.5,-921.118 106.5,-878 106.5,-878 106.5,-878 106.5,-453 106.5,-405.13 100.96,-385.669 130.5,-348 166.968,-301.497 227.886,-272.753 276.844,-256.045"/>
<polygon fill="#58fda8" stroke="#58fda8" points="135.279,-981.717 136.14,-992.649 137.682,-986.101 140.086,-990.486 140.086,-990.486 140.086,-990.486 137.682,-986.101 144.032,-988.322 135.279,-981.717 135.279,-981.717"/>
<polygon fill="#58fda8" stroke="#58fda8" points="276.972,-256.003 287.879,-257.134 281.719,-254.432 286.466,-252.862 286.466,-252.862 286.466,-252.862 281.719,-254.432 285.053,-248.59 276.972,-256.003 276.972,-256.003"/>
</g>
<!-- Brand -->
<g id="node4" class="node"><title>Brand</title>
<path fill="none" stroke="black" d="M725,-801.5C725,-801.5 852,-801.5 852,-801.5 858,-801.5 864,-807.5 864,-813.5 864,-813.5 864,-940.5 864,-940.5 864,-946.5 858,-952.5 852,-952.5 852,-952.5 725,-952.5 725,-952.5 719,-952.5 713,-946.5 713,-940.5 713,-940.5 713,-813.5 713,-813.5 713,-807.5 719,-801.5 725,-801.5"/>
<text text-anchor="middle" x="788.5" y="-937.3" font-family="Times,serif" font-size="14.00">Brand</text>
<polyline fill="none" stroke="black" points="713,-929.5 864,-929.5 "/>
<text text-anchor="start" x="721" y="-914.3" font-family="Times,serif" font-size="14.00">id :int(11)</text>
<text text-anchor="start" x="721" y="-899.3" font-family="Times,serif" font-size="14.00">name :varchar(255)</text>
<text text-anchor="start" x="721" y="-884.3" font-family="Times,serif" font-size="14.00">text :text</text>
<text text-anchor="start" x="721" y="-869.3" font-family="Times,serif" font-size="14.00">title :varchar(255)</text>
<text text-anchor="start" x="721" y="-854.3" font-family="Times,serif" font-size="14.00">description :text</text>
<text text-anchor="start" x="721" y="-839.3" font-family="Times,serif" font-size="14.00">keywords :varchar(255)</text>
<text text-anchor="start" x="721" y="-824.3" font-family="Times,serif" font-size="14.00">created_at :datetime</text>
<text text-anchor="start" x="721" y="-809.3" font-family="Times,serif" font-size="14.00">updated_at :datetime</text>
</g>
<!-- Group -->
<g id="node15" class="node"><title>Group</title>
<path fill="none" stroke="black" d="M336.5,-612.5C336.5,-612.5 446.5,-612.5 446.5,-612.5 452.5,-612.5 458.5,-618.5 458.5,-624.5 458.5,-624.5 458.5,-736.5 458.5,-736.5 458.5,-742.5 452.5,-748.5 446.5,-748.5 446.5,-748.5 336.5,-748.5 336.5,-748.5 330.5,-748.5 324.5,-742.5 324.5,-736.5 324.5,-736.5 324.5,-624.5 324.5,-624.5 324.5,-618.5 330.5,-612.5 336.5,-612.5"/>
<text text-anchor="middle" x="391.5" y="-733.3" font-family="Times,serif" font-size="14.00">Group</text>
<polyline fill="none" stroke="black" points="324.5,-725.5 458.5,-725.5 "/>
<text text-anchor="start" x="332.5" y="-710.3" font-family="Times,serif" font-size="14.00">id :int(11)</text>
<text text-anchor="start" x="332.5" y="-695.3" font-family="Times,serif" font-size="14.00">name :varchar(255)</text>
<text text-anchor="start" x="332.5" y="-680.3" font-family="Times,serif" font-size="14.00">brand_id :int(11)</text>
<text text-anchor="start" x="332.5" y="-665.3" font-family="Times,serif" font-size="14.00">text :text</text>
<text text-anchor="start" x="332.5" y="-650.3" font-family="Times,serif" font-size="14.00">doptext :text</text>
<text text-anchor="start" x="332.5" y="-635.3" font-family="Times,serif" font-size="14.00">created_at :datetime</text>
<text text-anchor="start" x="332.5" y="-620.3" font-family="Times,serif" font-size="14.00">updated_at :datetime</text>
</g>
<!-- Brand&#45;&gt;Group -->
<g id="edge7" class="edge"><title>Brand&#45;&gt;Group</title>
<path fill="none" stroke="#106b28" d="M705.262,-849.233C647.538,-829.203 569.791,-799.26 505.5,-764 492.708,-756.984 479.68,-748.752 467.223,-740.253"/>
<ellipse fill="none" stroke="#106b28" cx="709.131" cy="-850.567" rx="4.00001" ry="4.00001"/>
<polygon fill="#106b28" stroke="#106b28" points="466.916,-740.04 461.266,-730.641 462.808,-737.189 458.7,-734.338 458.7,-734.338 458.7,-734.338 462.808,-737.189 456.135,-738.035 466.916,-740.04 466.916,-740.04"/>
</g>
<!-- ImageBrand -->
<g id="node17" class="node"><title>ImageBrand</title>
<path fill="none" stroke="black" d="M982.5,-620C982.5,-620 1092.5,-620 1092.5,-620 1098.5,-620 1104.5,-626 1104.5,-632 1104.5,-632 1104.5,-729 1104.5,-729 1104.5,-735 1098.5,-741 1092.5,-741 1092.5,-741 982.5,-741 982.5,-741 976.5,-741 970.5,-735 970.5,-729 970.5,-729 970.5,-632 970.5,-632 970.5,-626 976.5,-620 982.5,-620"/>
<text text-anchor="middle" x="1037.5" y="-725.8" font-family="Times,serif" font-size="14.00">ImageBrand</text>
<polyline fill="none" stroke="black" points="970.5,-718 1104.5,-718 "/>
<text text-anchor="start" x="978.5" y="-702.8" font-family="Times,serif" font-size="14.00">id :int(11)</text>
<text text-anchor="start" x="978.5" y="-687.8" font-family="Times,serif" font-size="14.00">name :varchar(255)</text>
<text text-anchor="start" x="978.5" y="-672.8" font-family="Times,serif" font-size="14.00">brand_id :int(11)</text>
<text text-anchor="start" x="978.5" y="-657.8" font-family="Times,serif" font-size="14.00">primary :tinyint(1)</text>
<text text-anchor="start" x="978.5" y="-642.8" font-family="Times,serif" font-size="14.00">created_at :datetime</text>
<text text-anchor="start" x="978.5" y="-627.8" font-family="Times,serif" font-size="14.00">updated_at :datetime</text>
</g>
<!-- Brand&#45;&gt;ImageBrand -->
<g id="edge8" class="edge"><title>Brand&#45;&gt;ImageBrand</title>
<path fill="none" stroke="#39d802" d="M871.232,-838.462C899.812,-823.418 931.027,-804.518 956.5,-783 968.297,-773.035 979.58,-761.136 989.779,-749.052"/>
<ellipse fill="none" stroke="#39d802" cx="867.577" cy="-840.359" rx="4.00002" ry="4.00002"/>
<polygon fill="#39d802" stroke="#39d802" points="989.966,-748.824 999.795,-743.961 993.143,-744.963 996.319,-741.102 996.319,-741.102 996.319,-741.102 993.143,-744.963 992.844,-738.243 989.966,-748.824 989.966,-748.824"/>
</g>
<!-- Product -->
<g id="node18" class="node"><title>Product</title>
<path fill="none" stroke="black" d="M476.5,-348.5C476.5,-348.5 586.5,-348.5 586.5,-348.5 592.5,-348.5 598.5,-354.5 598.5,-360.5 598.5,-360.5 598.5,-547.5 598.5,-547.5 598.5,-553.5 592.5,-559.5 586.5,-559.5 586.5,-559.5 476.5,-559.5 476.5,-559.5 470.5,-559.5 464.5,-553.5 464.5,-547.5 464.5,-547.5 464.5,-360.5 464.5,-360.5 464.5,-354.5 470.5,-348.5 476.5,-348.5"/>
<text text-anchor="middle" x="531.5" y="-544.3" font-family="Times,serif" font-size="14.00">Product</text>
<polyline fill="none" stroke="black" points="464.5,-536.5 598.5,-536.5 "/>
<text text-anchor="start" x="472.5" y="-521.3" font-family="Times,serif" font-size="14.00">id :int(11)</text>
<text text-anchor="start" x="472.5" y="-506.3" font-family="Times,serif" font-size="14.00">category_id :int(11)</text>
<text text-anchor="start" x="472.5" y="-491.3" font-family="Times,serif" font-size="14.00">brand_id :int(11)</text>
<text text-anchor="start" x="472.5" y="-476.3" font-family="Times,serif" font-size="14.00">group_id :int(11)</text>
<text text-anchor="start" x="472.5" y="-461.3" font-family="Times,serif" font-size="14.00">name :varchar(255)</text>
<text text-anchor="start" x="472.5" y="-446.3" font-family="Times,serif" font-size="14.00">text :text</text>
<text text-anchor="start" x="472.5" y="-431.3" font-family="Times,serif" font-size="14.00">doptext :text</text>
<text text-anchor="start" x="472.5" y="-416.3" font-family="Times,serif" font-size="14.00">title :text</text>
<text text-anchor="start" x="472.5" y="-401.3" font-family="Times,serif" font-size="14.00">description :text</text>
<text text-anchor="start" x="472.5" y="-386.3" font-family="Times,serif" font-size="14.00">keywords :text</text>
<text text-anchor="start" x="472.5" y="-371.3" font-family="Times,serif" font-size="14.00">created_at :datetime</text>
<text text-anchor="start" x="472.5" y="-356.3" font-family="Times,serif" font-size="14.00">updated_at :datetime</text>
</g>
<!-- Brand&#45;&gt;Product -->
<g id="edge5" class="edge"><title>Brand&#45;&gt;Product</title>
<path fill="none" stroke="#b7caf9" d="M757.184,-793.671C733.64,-736.309 698.483,-659.23 657.5,-597 648.547,-583.405 627.743,-559.159 605.566,-534.506"/>
<ellipse fill="none" stroke="#b7caf9" cx="758.774" cy="-797.571" rx="4.00001" ry="4.00001"/>
<polygon fill="#b7caf9" stroke="#b7caf9" points="605.356,-534.273 601.991,-523.836 602.004,-530.563 598.652,-526.853 598.652,-526.853 598.652,-526.853 602.004,-530.563 595.313,-529.87 605.356,-534.273 605.356,-534.273"/>
</g>
<!-- SubProduct -->
<g id="node21" class="node"><title>SubProduct</title>
<path fill="none" stroke="black" d="M792.5,-597.5C792.5,-597.5 902.5,-597.5 902.5,-597.5 908.5,-597.5 914.5,-603.5 914.5,-609.5 914.5,-609.5 914.5,-751.5 914.5,-751.5 914.5,-757.5 908.5,-763.5 902.5,-763.5 902.5,-763.5 792.5,-763.5 792.5,-763.5 786.5,-763.5 780.5,-757.5 780.5,-751.5 780.5,-751.5 780.5,-609.5 780.5,-609.5 780.5,-603.5 786.5,-597.5 792.5,-597.5"/>
<text text-anchor="middle" x="847.5" y="-748.3" font-family="Times,serif" font-size="14.00">SubProduct</text>
<polyline fill="none" stroke="black" points="780.5,-740.5 914.5,-740.5 "/>
<text text-anchor="start" x="788.5" y="-725.3" font-family="Times,serif" font-size="14.00">id :int(11)</text>
<text text-anchor="start" x="788.5" y="-710.3" font-family="Times,serif" font-size="14.00">brand_id :int(11)</text>
<text text-anchor="start" x="788.5" y="-695.3" font-family="Times,serif" font-size="14.00">product_id :int(11)</text>
<text text-anchor="start" x="788.5" y="-680.3" font-family="Times,serif" font-size="14.00">name :varchar(255)</text>
<text text-anchor="start" x="788.5" y="-665.3" font-family="Times,serif" font-size="14.00">small_text :text</text>
<text text-anchor="start" x="788.5" y="-650.3" font-family="Times,serif" font-size="14.00">price :int(11)</text>
<text text-anchor="start" x="788.5" y="-635.3" font-family="Times,serif" font-size="14.00">vendor_id :int(11)</text>
<text text-anchor="start" x="788.5" y="-620.3" font-family="Times,serif" font-size="14.00">created_at :datetime</text>
<text text-anchor="start" x="788.5" y="-605.3" font-family="Times,serif" font-size="14.00">updated_at :datetime</text>
</g>
<!-- Brand&#45;&gt;SubProduct -->
<g id="edge6" class="edge"><title>Brand&#45;&gt;SubProduct</title>
<path fill="none" stroke="#1d9456" d="M813.525,-793.501C815.535,-786.875 817.574,-780.156 819.602,-773.47"/>
<ellipse fill="none" stroke="#1d9456" cx="812.303" cy="-797.53" rx="4.00001" ry="4.00001"/>
<polygon fill="#1d9456" stroke="#1d9456" points="819.659,-773.282 826.868,-765.019 821.11,-768.497 822.562,-763.712 822.562,-763.712 822.562,-763.712 821.11,-768.497 818.255,-762.406 819.659,-773.282 819.659,-773.282"/>
</g>
<!-- Category -->
<g id="node5" class="node"><title>Category</title>
<path fill="none" stroke="black" d="M526.5,-627.5C526.5,-627.5 636.5,-627.5 636.5,-627.5 642.5,-627.5 648.5,-633.5 648.5,-639.5 648.5,-639.5 648.5,-721.5 648.5,-721.5 648.5,-727.5 642.5,-733.5 636.5,-733.5 636.5,-733.5 526.5,-733.5 526.5,-733.5 520.5,-733.5 514.5,-727.5 514.5,-721.5 514.5,-721.5 514.5,-639.5 514.5,-639.5 514.5,-633.5 520.5,-627.5 526.5,-627.5"/>
<text text-anchor="middle" x="581.5" y="-718.3" font-family="Times,serif" font-size="14.00">Category</text>
<polyline fill="none" stroke="black" points="514.5,-710.5 648.5,-710.5 "/>
<text text-anchor="start" x="522.5" y="-695.3" font-family="Times,serif" font-size="14.00">id :int(11)</text>
<text text-anchor="start" x="522.5" y="-680.3" font-family="Times,serif" font-size="14.00">name :varchar(255)</text>
<text text-anchor="start" x="522.5" y="-665.3" font-family="Times,serif" font-size="14.00">order :int(11)</text>
<text text-anchor="start" x="522.5" y="-650.3" font-family="Times,serif" font-size="14.00">created_at :datetime</text>
<text text-anchor="start" x="522.5" y="-635.3" font-family="Times,serif" font-size="14.00">updated_at :datetime</text>
</g>
<!-- Category&#45;&gt;Product -->
<g id="edge9" class="edge"><title>Category&#45;&gt;Product</title>
<path fill="none" stroke="#5b6aed" d="M568.069,-619.194C564.66,-603.887 560.882,-586.927 557.087,-569.886"/>
<ellipse fill="none" stroke="#5b6aed" cx="569.034" cy="-623.527" rx="4.00001" ry="4.00001"/>
<polygon fill="#5b6aed" stroke="#5b6aed" points="557.027,-569.616 559.245,-558.877 555.94,-564.736 554.853,-559.855 554.853,-559.855 554.853,-559.855 555.94,-564.736 550.461,-560.834 557.027,-569.616 557.027,-569.616"/>
</g>
<!-- Currency -->
<g id="node6" class="node"><title>Currency</title>
<path fill="none" stroke="black" d="M1149.5,-1480C1149.5,-1480 1259.5,-1480 1259.5,-1480 1265.5,-1480 1271.5,-1486 1271.5,-1492 1271.5,-1492 1271.5,-1589 1271.5,-1589 1271.5,-1595 1265.5,-1601 1259.5,-1601 1259.5,-1601 1149.5,-1601 1149.5,-1601 1143.5,-1601 1137.5,-1595 1137.5,-1589 1137.5,-1589 1137.5,-1492 1137.5,-1492 1137.5,-1486 1143.5,-1480 1149.5,-1480"/>
<text text-anchor="middle" x="1204.5" y="-1585.8" font-family="Times,serif" font-size="14.00">Currency</text>
<polyline fill="none" stroke="black" points="1137.5,-1578 1271.5,-1578 "/>
<text text-anchor="start" x="1145.5" y="-1562.8" font-family="Times,serif" font-size="14.00">id :int(11)</text>
<text text-anchor="start" x="1145.5" y="-1547.8" font-family="Times,serif" font-size="14.00">name :varchar(255)</text>
<text text-anchor="start" x="1145.5" y="-1532.8" font-family="Times,serif" font-size="14.00">value :int(11)</text>
<text text-anchor="start" x="1145.5" y="-1517.8" font-family="Times,serif" font-size="14.00">primary :tinyint(1)</text>
<text text-anchor="start" x="1145.5" y="-1502.8" font-family="Times,serif" font-size="14.00">created_at :datetime</text>
<text text-anchor="start" x="1145.5" y="-1487.8" font-family="Times,serif" font-size="14.00">updated_at :datetime</text>
</g>
<!-- Currency&#45;&gt;CurrencyVendor -->
<g id="edge10" class="edge"><title>Currency&#45;&gt;CurrencyVendor</title>
<path fill="none" stroke="#62e6ec" d="M1251.02,-1472.75C1279.88,-1424.85 1311.5,-1357.53 1311.5,-1292.5 1311.5,-1292.5 1311.5,-1292.5 1311.5,-453 1311.5,-406.183 1302.81,-354.525 1293.74,-313.358"/>
<ellipse fill="none" stroke="#62e6ec" cx="1248.88" cy="-1476.26" rx="4.00002" ry="4.00002"/>
<polygon fill="#62e6ec" stroke="#62e6ec" points="1293.7,-313.153 1295.89,-302.408 1292.6,-308.276 1291.5,-303.398 1291.5,-303.398 1291.5,-303.398 1292.6,-308.276 1287.11,-304.388 1293.7,-313.153 1293.7,-313.153"/>
</g>
<!-- Vendor -->
<g id="node24" class="node"><title>Vendor</title>
<path fill="none" stroke="black" d="M938.5,-1193.5C938.5,-1193.5 1062.5,-1193.5 1062.5,-1193.5 1068.5,-1193.5 1074.5,-1199.5 1074.5,-1205.5 1074.5,-1205.5 1074.5,-1377.5 1074.5,-1377.5 1074.5,-1383.5 1068.5,-1389.5 1062.5,-1389.5 1062.5,-1389.5 938.5,-1389.5 938.5,-1389.5 932.5,-1389.5 926.5,-1383.5 926.5,-1377.5 926.5,-1377.5 926.5,-1205.5 926.5,-1205.5 926.5,-1199.5 932.5,-1193.5 938.5,-1193.5"/>
<text text-anchor="middle" x="1000.5" y="-1374.3" font-family="Times,serif" font-size="14.00">Vendor</text>
<polyline fill="none" stroke="black" points="926.5,-1366.5 1074.5,-1366.5 "/>
<text text-anchor="start" x="934.5" y="-1351.3" font-family="Times,serif" font-size="14.00">id :int(11)</text>
<text text-anchor="start" x="934.5" y="-1336.3" font-family="Times,serif" font-size="14.00">name :varchar(255)</text>
<text text-anchor="start" x="934.5" y="-1321.3" font-family="Times,serif" font-size="14.00">file :varchar(255)</text>
<text text-anchor="start" x="934.5" y="-1306.3" font-family="Times,serif" font-size="14.00">formula :varchar(255)</text>
<text text-anchor="start" x="934.5" y="-1291.3" font-family="Times,serif" font-size="14.00">order :int(11)</text>
<text text-anchor="start" x="934.5" y="-1276.3" font-family="Times,serif" font-size="14.00">colarticle :varchar(255)</text>
<text text-anchor="start" x="934.5" y="-1261.3" font-family="Times,serif" font-size="14.00">colname :varchar(255)</text>
<text text-anchor="start" x="934.5" y="-1246.3" font-family="Times,serif" font-size="14.00">colprice :varchar(255)</text>
<text text-anchor="start" x="934.5" y="-1231.3" font-family="Times,serif" font-size="14.00">if :varchar(255)</text>
<text text-anchor="start" x="934.5" y="-1216.3" font-family="Times,serif" font-size="14.00">created_at :datetime</text>
<text text-anchor="start" x="934.5" y="-1201.3" font-family="Times,serif" font-size="14.00">updated_at :datetime</text>
</g>
<!-- Currency&#45;&gt;Vendor -->
<g id="edge11" class="edge"><title>Currency&#45;&gt;Vendor</title>
<path fill="none" stroke="#d26a03" d="M1160.96,-1471.11C1150.76,-1456.23 1139.61,-1440.82 1128.5,-1427 1114,-1408.98 1097.58,-1390.49 1081.44,-1373.22"/>
<polygon fill="#d26a03" stroke="#d26a03" points="1161.23,-1471.51 1163.12,-1482.31 1164.04,-1475.65 1166.85,-1479.79 1166.85,-1479.79 1166.85,-1479.79 1164.04,-1475.65 1170.57,-1477.26 1161.23,-1471.51 1161.23,-1471.51"/>
<polygon fill="#d26a03" stroke="#d26a03" points="1081.41,-1373.18 1077.83,-1362.81 1077.98,-1369.54 1074.55,-1365.9 1074.55,-1365.9 1074.55,-1365.9 1077.98,-1369.54 1071.28,-1368.98 1081.41,-1373.18 1081.41,-1373.18"/>
</g>
<!-- FiltersGroup -->
<g id="node9" class="node"><title>FiltersGroup</title>
<path fill="none" stroke="black" d="M310.5,-0.5C310.5,-0.5 420.5,-0.5 420.5,-0.5 426.5,-0.5 432.5,-6.5 432.5,-12.5 432.5,-12.5 432.5,-109.5 432.5,-109.5 432.5,-115.5 426.5,-121.5 420.5,-121.5 420.5,-121.5 310.5,-121.5 310.5,-121.5 304.5,-121.5 298.5,-115.5 298.5,-109.5 298.5,-109.5 298.5,-12.5 298.5,-12.5 298.5,-6.5 304.5,-0.5 310.5,-0.5"/>
<text text-anchor="middle" x="365.5" y="-106.3" font-family="Times,serif" font-size="14.00">FiltersGroup</text>
<polyline fill="none" stroke="black" points="298.5,-98.5 432.5,-98.5 "/>
<text text-anchor="start" x="306.5" y="-83.3" font-family="Times,serif" font-size="14.00">id :int(11)</text>
<text text-anchor="start" x="306.5" y="-68.3" font-family="Times,serif" font-size="14.00">group_id :int(11)</text>
<text text-anchor="start" x="306.5" y="-53.3" font-family="Times,serif" font-size="14.00">filter_id :int(11)</text>
<text text-anchor="start" x="306.5" y="-38.3" font-family="Times,serif" font-size="14.00">value_id :int(11)</text>
<text text-anchor="start" x="306.5" y="-23.3" font-family="Times,serif" font-size="14.00">created_at :datetime</text>
<text text-anchor="start" x="306.5" y="-8.3" font-family="Times,serif" font-size="14.00">updated_at :datetime</text>
</g>
<!-- Filter&#45;&gt;FiltersGroup -->
<g id="edge15" class="edge"><title>Filter&#45;&gt;FiltersGroup</title>
<path fill="none" stroke="#736084" d="M387.729,-849.052C348.104,-830.976 302.055,-803.213 274.5,-764 253.026,-733.441 258.5,-718.85 258.5,-681.5 258.5,-681.5 258.5,-681.5 258.5,-329 258.5,-252.974 246.219,-228.293 277.5,-159 282.095,-148.822 288.165,-138.979 294.977,-129.717"/>
<ellipse fill="none" stroke="#736084" cx="391.394" cy="-850.686" rx="4.00002" ry="4.00002"/>
<polygon fill="#736084" stroke="#736084" points="295.027,-129.652 304.698,-124.482 298.081,-125.693 301.134,-121.734 301.134,-121.734 301.134,-121.734 298.081,-125.693 297.571,-118.985 295.027,-129.652 295.027,-129.652"/>
</g>
<!-- FiltersProduct -->
<g id="node11" class="node"><title>FiltersProduct</title>
<path fill="none" stroke="black" d="M462.5,-0.5C462.5,-0.5 572.5,-0.5 572.5,-0.5 578.5,-0.5 584.5,-6.5 584.5,-12.5 584.5,-12.5 584.5,-109.5 584.5,-109.5 584.5,-115.5 578.5,-121.5 572.5,-121.5 572.5,-121.5 462.5,-121.5 462.5,-121.5 456.5,-121.5 450.5,-115.5 450.5,-109.5 450.5,-109.5 450.5,-12.5 450.5,-12.5 450.5,-6.5 456.5,-0.5 462.5,-0.5"/>
<text text-anchor="middle" x="517.5" y="-106.3" font-family="Times,serif" font-size="14.00">FiltersProduct</text>
<polyline fill="none" stroke="black" points="450.5,-98.5 584.5,-98.5 "/>
<text text-anchor="start" x="458.5" y="-83.3" font-family="Times,serif" font-size="14.00">id :int(11)</text>
<text text-anchor="start" x="458.5" y="-68.3" font-family="Times,serif" font-size="14.00">product_id :int(11)</text>
<text text-anchor="start" x="458.5" y="-53.3" font-family="Times,serif" font-size="14.00">filter_id :int(11)</text>
<text text-anchor="start" x="458.5" y="-38.3" font-family="Times,serif" font-size="14.00">value_id :int(11)</text>
<text text-anchor="start" x="458.5" y="-23.3" font-family="Times,serif" font-size="14.00">created_at :datetime</text>
<text text-anchor="start" x="458.5" y="-8.3" font-family="Times,serif" font-size="14.00">updated_at :datetime</text>
</g>
<!-- Filter&#45;&gt;FiltersProduct -->
<g id="edge13" class="edge"><title>Filter&#45;&gt;FiltersProduct</title>
<path fill="none" stroke="#459b4a" d="M537.566,-853.349C580.56,-836.16 631.076,-807.846 657.5,-764 692.21,-706.405 706.166,-217.778 673.5,-159 656.231,-127.927 624.424,-105.523 594.013,-90.13"/>
<ellipse fill="none" stroke="#459b4a" cx="533.638" cy="-854.876" rx="4.00001" ry="4.00001"/>
<polygon fill="#459b4a" stroke="#459b4a" points="593.633,-89.9454 586.604,-81.5284 589.135,-87.7608 584.638,-85.5762 584.638,-85.5762 584.638,-85.5762 589.135,-87.7608 582.672,-89.624 593.633,-89.9454 593.633,-89.9454"/>
</g>
<!-- Filter&#45;&gt;FiltersReject -->
<g id="edge19" class="edge"><title>Filter&#45;&gt;FiltersReject</title>
<path fill="none" stroke="#0442d3" d="M387.382,-860.972C331.863,-845.904 258.841,-817.047 216.5,-764 176.963,-714.465 108.532,-299.24 82.2275,-131.692"/>
<ellipse fill="none" stroke="#0442d3" cx="391.573" cy="-862.076" rx="4.00001" ry="4.00001"/>
<polygon fill="#0442d3" stroke="#0442d3" points="82.2161,-131.618 85.1146,-121.043 81.4425,-126.679 80.6688,-121.739 80.6688,-121.739 80.6688,-121.739 81.4425,-126.679 76.223,-122.435 82.2161,-131.618 82.2161,-131.618"/>
</g>
<!-- FiltersSubProduct -->
<g id="node13" class="node"><title>FiltersSubProduct</title>
<path fill="none" stroke="black" d="M672,-0.5C672,-0.5 797,-0.5 797,-0.5 803,-0.5 809,-6.5 809,-12.5 809,-12.5 809,-109.5 809,-109.5 809,-115.5 803,-121.5 797,-121.5 797,-121.5 672,-121.5 672,-121.5 666,-121.5 660,-115.5 660,-109.5 660,-109.5 660,-12.5 660,-12.5 660,-6.5 666,-0.5 672,-0.5"/>
<text text-anchor="middle" x="734.5" y="-106.3" font-family="Times,serif" font-size="14.00">FiltersSubProduct</text>
<polyline fill="none" stroke="black" points="660,-98.5 809,-98.5 "/>
<text text-anchor="start" x="668" y="-83.3" font-family="Times,serif" font-size="14.00">id :int(11)</text>
<text text-anchor="start" x="668" y="-68.3" font-family="Times,serif" font-size="14.00">sub_product_id :int(11)</text>
<text text-anchor="start" x="668" y="-53.3" font-family="Times,serif" font-size="14.00">filter_id :int(11)</text>
<text text-anchor="start" x="668" y="-38.3" font-family="Times,serif" font-size="14.00">value_id :int(11)</text>
<text text-anchor="start" x="668" y="-23.3" font-family="Times,serif" font-size="14.00">created_at :datetime</text>
<text text-anchor="start" x="668" y="-8.3" font-family="Times,serif" font-size="14.00">updated_at :datetime</text>
</g>
<!-- Filter&#45;&gt;FiltersSubProduct -->
<g id="edge17" class="edge"><title>Filter&#45;&gt;FiltersSubProduct</title>
<path fill="none" stroke="#d8c33f" d="M537.455,-860.66C589.188,-845.651 653.952,-817.009 684.5,-764 745.628,-657.928 741.693,-287.758 737.1,-131.957"/>
<ellipse fill="none" stroke="#d8c33f" cx="533.448" cy="-861.784" rx="4.00001" ry="4.00001"/>
<polygon fill="#d8c33f" stroke="#d8c33f" points="737.088,-131.558 741.281,-121.425 736.935,-126.56 736.783,-121.563 736.783,-121.563 736.783,-121.563 736.935,-126.56 732.285,-121.7 737.088,-131.558 737.088,-131.558"/>
</g>
<!-- Filter&#45;&gt;Group -->
<g id="edge16" class="edge"><title>Filter&#45;&gt;Group</title>
<path fill="none" stroke="#fcbd9e" d="M442.763,-821.931C435.593,-802.29 427.347,-779.702 419.595,-758.464"/>
<polygon fill="#fcbd9e" stroke="#fcbd9e" points="442.782,-821.984 441.984,-832.921 444.497,-826.681 446.211,-831.378 446.211,-831.378 446.211,-831.378 444.497,-826.681 450.438,-829.835 442.782,-821.984 442.782,-821.984"/>
<polygon fill="#fcbd9e" stroke="#fcbd9e" points="419.502,-758.211 420.3,-747.274 417.788,-753.514 416.073,-748.817 416.073,-748.817 416.073,-748.817 417.788,-753.514 411.846,-750.36 419.502,-758.211 419.502,-758.211"/>
</g>
<!-- Filter&#45;&gt;Product -->
<g id="edge14" class="edge"><title>Filter&#45;&gt;Product</title>
<path fill="none" stroke="#04f277" d="M470.454,-821.376C478.761,-765.077 492.385,-674.798 505.5,-597 506.999,-588.107 508.591,-578.908 510.219,-569.665"/>
<polygon fill="#04f277" stroke="#04f277" points="470.423,-821.589 464.514,-830.827 469.694,-826.536 468.966,-831.482 468.966,-831.482 468.966,-831.482 469.694,-826.536 473.418,-832.138 470.423,-821.589 470.423,-821.589"/>
<polygon fill="#04f277" stroke="#04f277" points="510.252,-569.478 516.428,-560.417 511.125,-564.555 511.997,-559.631 511.997,-559.631 511.997,-559.631 511.125,-564.555 507.566,-558.846 510.252,-569.478 510.252,-569.478"/>
</g>
<!-- Filter&#45;&gt;SubProduct -->
<g id="edge18" class="edge"><title>Filter&#45;&gt;SubProduct</title>
<path fill="none" stroke="#b5d47f" d="M539.488,-856.593C593.636,-841.109 666.641,-816.46 725.5,-783 741.466,-773.924 757.389,-762.693 772.208,-751.045"/>
<polygon fill="#b5d47f" stroke="#b5d47f" points="539.23,-856.665 528.384,-855.046 534.417,-858.021 529.604,-859.377 529.604,-859.377 529.604,-859.377 534.417,-858.021 530.825,-863.709 539.23,-856.665 539.23,-856.665"/>
<polygon fill="#b5d47f" stroke="#b5d47f" points="772.518,-750.796 783.136,-748.053 776.42,-747.669 780.321,-744.541 780.321,-744.541 780.321,-744.541 776.42,-747.669 777.507,-741.03 772.518,-750.796 772.518,-750.796"/>
</g>
<!-- Filter&#45;&gt;Value -->
<g id="edge12" class="edge"><title>Filter&#45;&gt;Value</title>
<path fill="none" stroke="#90d6e6" d="M386.862,-837.806C359.123,-819.557 330.792,-794.876 315.5,-764 237.538,-606.588 297.175,-389.9 332.402,-290.198"/>
<polygon fill="#90d6e6" stroke="#90d6e6" points="387,-837.894 393.02,-847.06 391.218,-840.579 395.436,-843.263 395.436,-843.263 395.436,-843.263 391.218,-840.579 397.852,-839.467 387,-837.894 387,-837.894"/>
<polygon fill="#90d6e6" stroke="#90d6e6" points="332.456,-290.046 340.069,-282.153 334.145,-285.339 335.834,-280.633 335.834,-280.633 335.834,-280.633 334.145,-285.339 331.598,-279.113 332.456,-290.046 332.456,-290.046"/>
</g>
<!-- FiltersNews -->
<g id="node25" class="node"><title>FiltersNews</title>
<ellipse fill="none" stroke="black" cx="942.5" cy="-61" rx="54.6905" ry="18"/>
<text text-anchor="middle" x="942.5" y="-57.3" font-family="Times,serif" font-size="14.00">FiltersNews</text>
</g>
<!-- Filter&#45;&gt;FiltersNews -->
<g id="edge20" class="edge"><title>Filter&#45;&gt;FiltersNews</title>
<path fill="none" stroke="#4b7b1a" d="M537.413,-849.952C584.86,-834.162 647.757,-814.523 704.5,-801 800.524,-778.116 851.672,-831.712 923.5,-764 950.879,-738.19 942.5,-719.126 942.5,-681.5 942.5,-681.5 942.5,-681.5 942.5,-234 942.5,-182.805 942.5,-123.038 942.5,-89.1415"/>
<ellipse fill="none" stroke="#4b7b1a" cx="533.43" cy="-851.283" rx="4.00001" ry="4.00001"/>
<polygon fill="#4b7b1a" stroke="#4b7b1a" points="942.5,-89.089 947,-79.089 942.5,-84.089 942.5,-79.089 942.5,-79.089 942.5,-79.089 942.5,-84.089 938,-79.0891 942.5,-89.089 942.5,-89.089"/>
</g>
<!-- ProductNews -->
<g id="node26" class="node"><title>ProductNews</title>
<ellipse fill="none" stroke="black" cx="220.5" cy="-61" rx="59.5901" ry="18"/>
<text text-anchor="middle" x="220.5" y="-57.3" font-family="Times,serif" font-size="14.00">ProductNews</text>
</g>
<!-- Filter&#45;&gt;ProductNews -->
<g id="edge21" class="edge"><title>Filter&#45;&gt;ProductNews</title>
<path fill="none" stroke="#bd8b07" d="M386.014,-850.877C315.106,-822.202 220.5,-767.777 220.5,-681.5 220.5,-681.5 220.5,-681.5 220.5,-234 220.5,-182.805 220.5,-123.038 220.5,-89.1415"/>
<polygon fill="#bd8b07" stroke="#bd8b07" points="386.109,-850.914 393.759,-858.77 390.76,-852.749 395.411,-854.584 395.411,-854.584 395.411,-854.584 390.76,-852.749 397.062,-850.398 386.109,-850.914 386.109,-850.914"/>
<polygon fill="#bd8b07" stroke="#bd8b07" points="220.5,-89.089 225,-79.089 220.5,-84.089 220.5,-79.089 220.5,-79.089 220.5,-79.089 220.5,-84.089 216,-79.0891 220.5,-89.089 220.5,-89.089"/>
</g>
<!-- FiltersNew -->
<g id="node10" class="node"><title>FiltersNew</title>
<path fill="none" stroke="black" d="M1302,-1480C1302,-1480 1431,-1480 1431,-1480 1437,-1480 1443,-1486 1443,-1492 1443,-1492 1443,-1589 1443,-1589 1443,-1595 1437,-1601 1431,-1601 1431,-1601 1302,-1601 1302,-1601 1296,-1601 1290,-1595 1290,-1589 1290,-1589 1290,-1492 1290,-1492 1290,-1486 1296,-1480 1302,-1480"/>
<text text-anchor="middle" x="1366.5" y="-1585.8" font-family="Times,serif" font-size="14.00">FiltersNew</text>
<polyline fill="none" stroke="black" points="1290,-1578 1443,-1578 "/>
<text text-anchor="start" x="1298" y="-1562.8" font-family="Times,serif" font-size="14.00">id :int(11)</text>
<text text-anchor="start" x="1298" y="-1547.8" font-family="Times,serif" font-size="14.00">product_new_id :int(11)</text>
<text text-anchor="start" x="1298" y="-1532.8" font-family="Times,serif" font-size="14.00">filter_id :int(11)</text>
<text text-anchor="start" x="1298" y="-1517.8" font-family="Times,serif" font-size="14.00">value_id :int(11)</text>
<text text-anchor="start" x="1298" y="-1502.8" font-family="Times,serif" font-size="14.00">created_at :datetime</text>
<text text-anchor="start" x="1298" y="-1487.8" font-family="Times,serif" font-size="14.00">updated_at :datetime</text>
</g>
<!-- FiltersValue -->
<g id="node14" class="node"><title>FiltersValue</title>
<path fill="none" stroke="black" d="M1473.5,-1502.5C1473.5,-1502.5 1559.5,-1502.5 1559.5,-1502.5 1565.5,-1502.5 1571.5,-1508.5 1571.5,-1514.5 1571.5,-1514.5 1571.5,-1566.5 1571.5,-1566.5 1571.5,-1572.5 1565.5,-1578.5 1559.5,-1578.5 1559.5,-1578.5 1473.5,-1578.5 1473.5,-1578.5 1467.5,-1578.5 1461.5,-1572.5 1461.5,-1566.5 1461.5,-1566.5 1461.5,-1514.5 1461.5,-1514.5 1461.5,-1508.5 1467.5,-1502.5 1473.5,-1502.5"/>
<text text-anchor="middle" x="1516.5" y="-1563.3" font-family="Times,serif" font-size="14.00">FiltersValue</text>
<polyline fill="none" stroke="black" points="1461.5,-1555.5 1571.5,-1555.5 "/>
<text text-anchor="start" x="1469.5" y="-1540.3" font-family="Times,serif" font-size="14.00">id :int(11)</text>
<text text-anchor="start" x="1469.5" y="-1525.3" font-family="Times,serif" font-size="14.00">filter_id :int(11)</text>
<text text-anchor="start" x="1469.5" y="-1510.3" font-family="Times,serif" font-size="14.00">value_id :int(11)</text>
</g>
<!-- Group&#45;&gt;FiltersGroup -->
<g id="edge23" class="edge"><title>Group&#45;&gt;FiltersGroup</title>
<path fill="none" stroke="#180a0c" d="M413.563,-604.233C440.031,-501.343 475.451,-312.083 429.5,-159 426.577,-149.262 422.325,-139.599 417.38,-130.359"/>
<ellipse fill="none" stroke="#180a0c" cx="412.523" cy="-608.226" rx="4.00001" ry="4.00001"/>
<polygon fill="#180a0c" stroke="#180a0c" points="417.371,-130.344 416.364,-119.425 414.909,-125.992 412.447,-121.641 412.447,-121.641 412.447,-121.641 414.909,-125.992 408.53,-123.856 417.371,-130.344 417.371,-130.344"/>
</g>
<!-- Group&#45;&gt;Product -->
<g id="edge22" class="edge"><title>Group&#45;&gt;Product</title>
<path fill="none" stroke="#49a6bf" d="M437.756,-605.326C445.193,-593.4 453.035,-580.824 460.888,-568.232"/>
<ellipse fill="none" stroke="#49a6bf" cx="435.432" cy="-609.053" rx="4.00002" ry="4.00002"/>
<polygon fill="#49a6bf" stroke="#49a6bf" points="461.03,-568.004 470.14,-561.9 463.675,-563.762 466.321,-559.519 466.321,-559.519 466.321,-559.519 463.675,-563.762 462.503,-557.138 461.03,-568.004 461.03,-568.004"/>
</g>
<!-- Group&#45;&gt;Value -->
<g id="edge24" class="edge"><title>Group&#45;&gt;Value</title>
<path fill="none" stroke="#bb77cb" d="M384.854,-601.933C377.221,-512.849 364.892,-368.96 358.195,-290.795"/>
<polygon fill="#bb77cb" stroke="#bb77cb" points="384.875,-602.178 381.245,-612.526 385.302,-607.16 385.729,-612.142 385.729,-612.142 385.729,-612.142 385.302,-607.16 390.212,-611.758 384.875,-602.178 384.875,-602.178"/>
<polygon fill="#bb77cb" stroke="#bb77cb" points="358.182,-290.639 361.811,-280.291 357.755,-285.657 357.328,-280.675 357.328,-280.675 357.328,-280.675 357.755,-285.657 352.844,-281.059 358.182,-290.639 358.182,-290.639"/>
</g>
<!-- Image -->
<g id="node16" class="node"><title>Image</title>
<path fill="none" stroke="black" d="M527,-159.5C527,-159.5 652,-159.5 652,-159.5 658,-159.5 664,-165.5 664,-171.5 664,-171.5 664,-298.5 664,-298.5 664,-304.5 658,-310.5 652,-310.5 652,-310.5 527,-310.5 527,-310.5 521,-310.5 515,-304.5 515,-298.5 515,-298.5 515,-171.5 515,-171.5 515,-165.5 521,-159.5 527,-159.5"/>
<text text-anchor="middle" x="589.5" y="-295.3" font-family="Times,serif" font-size="14.00">Image</text>
<polyline fill="none" stroke="black" points="515,-287.5 664,-287.5 "/>
<text text-anchor="start" x="523" y="-272.3" font-family="Times,serif" font-size="14.00">id :int(11)</text>
<text text-anchor="start" x="523" y="-257.3" font-family="Times,serif" font-size="14.00">name :varchar(255)</text>
<text text-anchor="start" x="523" y="-242.3" font-family="Times,serif" font-size="14.00">sub_product_id :int(11)</text>
<text text-anchor="start" x="523" y="-227.3" font-family="Times,serif" font-size="14.00">product_id :int(11)</text>
<text text-anchor="start" x="523" y="-212.3" font-family="Times,serif" font-size="14.00">brand_id :int(11)</text>
<text text-anchor="start" x="523" y="-197.3" font-family="Times,serif" font-size="14.00">primary :tinyint(1)</text>
<text text-anchor="start" x="523" y="-182.3" font-family="Times,serif" font-size="14.00">created_at :datetime</text>
<text text-anchor="start" x="523" y="-167.3" font-family="Times,serif" font-size="14.00">updated_at :datetime</text>
</g>
<!-- Product&#45;&gt;FiltersProduct -->
<g id="edge25" class="edge"><title>Product&#45;&gt;FiltersProduct</title>
<path fill="none" stroke="#530228" d="M508.951,-340.3C507.556,-330.422 506.367,-320.552 505.5,-311 499.391,-243.721 501.345,-226.428 505.5,-159 506.042,-150.202 506.858,-140.98 507.815,-131.868"/>
<ellipse fill="none" stroke="#530228" cx="509.532" cy="-344.261" rx="4.00001" ry="4.00001"/>
<polygon fill="#530228" stroke="#530228" points="507.845,-131.596 513.421,-122.153 508.397,-126.627 508.948,-121.657 508.948,-121.657 508.948,-121.657 508.397,-126.627 504.476,-121.161 507.845,-131.596 507.845,-131.596"/>
</g>
<!-- Product&#45;&gt;Image -->
<g id="edge27" class="edge"><title>Product&#45;&gt;Image</title>
<path fill="none" stroke="#5d8e66" d="M561.547,-340.584C563.319,-333.953 565.086,-327.341 566.822,-320.848"/>
<ellipse fill="none" stroke="#5d8e66" cx="560.514" cy="-344.449" rx="4.00001" ry="4.00001"/>
<polygon fill="#5d8e66" stroke="#5d8e66" points="566.937,-320.418 573.866,-311.919 568.228,-315.588 569.519,-310.757 569.519,-310.757 569.519,-310.757 568.228,-315.588 565.171,-309.595 566.937,-320.418 566.937,-320.418"/>
</g>
<!-- Product&#45;&gt;Value -->
<g id="edge26" class="edge"><title>Product&#45;&gt;Value</title>
<path fill="none" stroke="#cc35db" d="M457.905,-363.28C436.977,-337.767 414.877,-310.824 396.425,-288.33"/>
<polygon fill="#cc35db" stroke="#cc35db" points="458.117,-363.539 460.98,-374.125 461.288,-367.405 464.459,-371.271 464.459,-371.271 464.459,-371.271 461.288,-367.405 467.939,-368.417 458.117,-363.539 458.117,-363.539"/>
<polygon fill="#cc35db" stroke="#cc35db" points="396.4,-288.3 393.537,-277.714 393.229,-284.434 390.058,-280.568 390.058,-280.568 390.058,-280.568 393.229,-284.434 386.579,-283.422 396.4,-288.3 396.4,-288.3"/>
</g>
<!-- ProductNew -->
<g id="node19" class="node"><title>ProductNew</title>
<path fill="none" stroke="black" d="M630.5,-990.5C630.5,-990.5 740.5,-990.5 740.5,-990.5 746.5,-990.5 752.5,-996.5 752.5,-1002.5 752.5,-1002.5 752.5,-1129.5 752.5,-1129.5 752.5,-1135.5 746.5,-1141.5 740.5,-1141.5 740.5,-1141.5 630.5,-1141.5 630.5,-1141.5 624.5,-1141.5 618.5,-1135.5 618.5,-1129.5 618.5,-1129.5 618.5,-1002.5 618.5,-1002.5 618.5,-996.5 624.5,-990.5 630.5,-990.5"/>
<text text-anchor="middle" x="685.5" y="-1126.3" font-family="Times,serif" font-size="14.00">ProductNew</text>
<polyline fill="none" stroke="black" points="618.5,-1118.5 752.5,-1118.5 "/>
<text text-anchor="start" x="626.5" y="-1103.3" font-family="Times,serif" font-size="14.00">id :int(11)</text>
<text text-anchor="start" x="626.5" y="-1088.3" font-family="Times,serif" font-size="14.00">vendor_id :int(11)</text>
<text text-anchor="start" x="626.5" y="-1073.3" font-family="Times,serif" font-size="14.00">article :varchar(255)</text>
<text text-anchor="start" x="626.5" y="-1058.3" font-family="Times,serif" font-size="14.00">name :varchar(255)</text>
<text text-anchor="start" x="626.5" y="-1043.3" font-family="Times,serif" font-size="14.00">price :int(11)</text>
<text text-anchor="start" x="626.5" y="-1028.3" font-family="Times,serif" font-size="14.00">category_id :int(11)</text>
<text text-anchor="start" x="626.5" y="-1013.3" font-family="Times,serif" font-size="14.00">created_at :datetime</text>
<text text-anchor="start" x="626.5" y="-998.3" font-family="Times,serif" font-size="14.00">updated_at :datetime</text>
</g>
<!-- ProductNew&#45;&gt;Filter -->
<g id="edge29" class="edge"><title>ProductNew&#45;&gt;Filter</title>
<path fill="none" stroke="#d8d8ab" d="M610.49,-1002.1C582.215,-978.389 550.422,-951.728 523.571,-929.212"/>
<polygon fill="#d8d8ab" stroke="#d8d8ab" points="610.628,-1002.21 615.399,-1012.09 614.459,-1005.43 618.29,-1008.64 618.29,-1008.64 618.29,-1008.64 614.459,-1005.43 621.182,-1005.19 610.628,-1002.21 610.628,-1002.21"/>
<polygon fill="#d8d8ab" stroke="#d8d8ab" points="523.435,-929.098 518.664,-919.224 519.604,-925.885 515.772,-922.672 515.772,-922.672 515.772,-922.672 519.604,-925.885 512.881,-926.12 523.435,-929.098 523.435,-929.098"/>
</g>
<!-- ProductNew&#45;&gt;Value -->
<g id="edge30" class="edge"><title>ProductNew&#45;&gt;Value</title>
<path fill="none" stroke="#2bb5d2" d="M608.313,-1054.76C458.851,-1032.76 144.5,-974.962 144.5,-878 144.5,-878 144.5,-878 144.5,-578 144.5,-461.151 234.427,-350.443 296.306,-288.097"/>
<polygon fill="#2bb5d2" stroke="#2bb5d2" points="608.452,-1054.78 617.7,-1060.67 613.4,-1055.5 618.348,-1056.22 618.348,-1056.22 618.348,-1056.22 613.4,-1055.5 618.996,-1051.77 608.452,-1054.78 608.452,-1054.78"/>
<polygon fill="#2bb5d2" stroke="#2bb5d2" points="296.615,-287.789 306.878,-283.927 300.16,-284.263 303.705,-280.736 303.705,-280.736 303.705,-280.736 300.16,-284.263 300.531,-277.546 296.615,-287.789 296.615,-287.789"/>
</g>
<!-- ProductNew&#45;&gt;FiltersNews -->
<g id="edge28" class="edge"><title>ProductNew&#45;&gt;FiltersNews</title>
<path fill="none" stroke="#3df82a" d="M760.325,-1038.91C862.974,-998.453 1042.78,-909.704 1113.5,-764 1145.91,-697.227 1135.88,-667.768 1113.5,-597 1107.44,-577.837 1096.2,-578.116 1087.5,-560 1006.09,-390.581 961.04,-166.357 947.178,-89.3341"/>
<ellipse fill="none" stroke="#3df82a" cx="756.493" cy="-1040.4" rx="4.00001" ry="4.00001"/>
<polygon fill="#3df82a" stroke="#3df82a" points="947.103,-88.909 949.79,-78.2774 946.231,-83.9856 945.359,-79.0623 945.359,-79.0623 945.359,-79.0623 946.231,-83.9856 940.928,-79.8471 947.103,-88.909 947.103,-88.909"/>
</g>
<!-- Sign -->
<g id="node20" class="node"><title>Sign</title>
<path fill="none" stroke="black" d="M1601.5,-1487.5C1601.5,-1487.5 1711.5,-1487.5 1711.5,-1487.5 1717.5,-1487.5 1723.5,-1493.5 1723.5,-1499.5 1723.5,-1499.5 1723.5,-1581.5 1723.5,-1581.5 1723.5,-1587.5 1717.5,-1593.5 1711.5,-1593.5 1711.5,-1593.5 1601.5,-1593.5 1601.5,-1593.5 1595.5,-1593.5 1589.5,-1587.5 1589.5,-1581.5 1589.5,-1581.5 1589.5,-1499.5 1589.5,-1499.5 1589.5,-1493.5 1595.5,-1487.5 1601.5,-1487.5"/>
<text text-anchor="middle" x="1656.5" y="-1578.3" font-family="Times,serif" font-size="14.00">Sign</text>
<polyline fill="none" stroke="black" points="1589.5,-1570.5 1723.5,-1570.5 "/>
<text text-anchor="start" x="1597.5" y="-1555.3" font-family="Times,serif" font-size="14.00">id :int(11)</text>
<text text-anchor="start" x="1597.5" y="-1540.3" font-family="Times,serif" font-size="14.00">sign :varchar(255)</text>
<text text-anchor="start" x="1597.5" y="-1525.3" font-family="Times,serif" font-size="14.00">name :varchar(255)</text>
<text text-anchor="start" x="1597.5" y="-1510.3" font-family="Times,serif" font-size="14.00">created_at :datetime</text>
<text text-anchor="start" x="1597.5" y="-1495.3" font-family="Times,serif" font-size="14.00">updated_at :datetime</text>
</g>
<!-- SubProduct&#45;&gt;BaseCode -->
<g id="edge31" class="edge"><title>SubProduct&#45;&gt;BaseCode</title>
<path fill="none" stroke="#03bcd1" d="M921.281,-625.62C934.618,-616.019 948.436,-606.162 961.5,-597 1003.26,-567.713 1050.2,-535.736 1089,-509.555"/>
<ellipse fill="none" stroke="#03bcd1" cx="918.022" cy="-627.969" rx="4.00002" ry="4.00002"/>
<ellipse fill="#03bcd1" stroke="#03bcd1" cx="1092.33" cy="-507.308" rx="4.00002" ry="4.00002"/>
</g>
<!-- SubProduct&#45;&gt;FiltersSubProduct -->
<g id="edge33" class="edge"><title>SubProduct&#45;&gt;FiltersSubProduct</title>
<path fill="none" stroke="#1f60ec" d="M830.989,-589.275C808.239,-464.954 767.741,-243.65 747.201,-131.406"/>
<ellipse fill="none" stroke="#1f60ec" cx="831.716" cy="-593.247" rx="4.00001" ry="4.00001"/>
<polygon fill="#1f60ec" stroke="#1f60ec" points="747.197,-131.384 749.823,-120.737 746.297,-126.465 745.397,-121.547 745.397,-121.547 745.397,-121.547 746.297,-126.465 740.97,-122.357 747.197,-131.384 747.197,-131.384"/>
</g>
<!-- SubProduct&#45;&gt;Image -->
<g id="edge32" class="edge"><title>SubProduct&#45;&gt;Image</title>
<path fill="none" stroke="#c56a3c" d="M796.463,-590.005C758.218,-523.163 704.442,-429.654 656.5,-348 651.054,-338.725 645.325,-329.039 639.603,-319.413"/>
<ellipse fill="none" stroke="#c56a3c" cx="798.595" cy="-593.731" rx="4.00002" ry="4.00002"/>
<polygon fill="#c56a3c" stroke="#c56a3c" points="639.474,-319.196 638.227,-308.302 636.917,-314.9 634.36,-310.603 634.36,-310.603 634.36,-310.603 636.917,-314.9 630.493,-312.905 639.474,-319.196 639.474,-319.196"/>
</g>
<!-- SubProduct&#45;&gt;Value -->
<g id="edge34" class="edge"><title>SubProduct&#45;&gt;Value</title>
<path fill="none" stroke="#17354e" d="M771.678,-632.512C718.81,-599.678 657.53,-561.445 656.5,-560 600.355,-481.261 671.628,-420.386 607.5,-348 575.522,-311.904 549.857,-329.92 505.5,-311 480.539,-300.353 453.837,-287.644 429.888,-275.741"/>
<polygon fill="#17354e" stroke="#17354e" points="771.922,-632.663 778.044,-641.761 776.17,-635.3 780.417,-637.938 780.417,-637.938 780.417,-637.938 776.17,-635.3 782.791,-634.115 771.922,-632.663 771.922,-632.663"/>
<polygon fill="#17354e" stroke="#17354e" points="429.797,-275.696 422.865,-267.199 425.325,-273.46 420.853,-271.224 420.853,-271.224 420.853,-271.224 425.325,-273.46 418.841,-275.249 429.797,-275.696 429.797,-275.696"/>
</g>
<!-- User -->
<g id="node22" class="node"><title>User</title>
<path fill="none" stroke="black" d="M1754,-1427.5C1754,-1427.5 1951,-1427.5 1951,-1427.5 1957,-1427.5 1963,-1433.5 1963,-1439.5 1963,-1439.5 1963,-1641.5 1963,-1641.5 1963,-1647.5 1957,-1653.5 1951,-1653.5 1951,-1653.5 1754,-1653.5 1754,-1653.5 1748,-1653.5 1742,-1647.5 1742,-1641.5 1742,-1641.5 1742,-1439.5 1742,-1439.5 1742,-1433.5 1748,-1427.5 1754,-1427.5"/>
<text text-anchor="middle" x="1852.5" y="-1638.3" font-family="Times,serif" font-size="14.00">User</text>
<polyline fill="none" stroke="black" points="1742,-1630.5 1963,-1630.5 "/>
<text text-anchor="start" x="1750" y="-1615.3" font-family="Times,serif" font-size="14.00">id :int(11)</text>
<text text-anchor="start" x="1750" y="-1600.3" font-family="Times,serif" font-size="14.00">email :varchar(255)</text>
<text text-anchor="start" x="1750" y="-1585.3" font-family="Times,serif" font-size="14.00">encrypted_password :varchar(255)</text>
<text text-anchor="start" x="1750" y="-1570.3" font-family="Times,serif" font-size="14.00">reset_password_token :varchar(255)</text>
<text text-anchor="start" x="1750" y="-1555.3" font-family="Times,serif" font-size="14.00">reset_password_sent_at :datetime</text>
<text text-anchor="start" x="1750" y="-1540.3" font-family="Times,serif" font-size="14.00">remember_created_at :datetime</text>
<text text-anchor="start" x="1750" y="-1525.3" font-family="Times,serif" font-size="14.00">sign_in_count :int(11)</text>
<text text-anchor="start" x="1750" y="-1510.3" font-family="Times,serif" font-size="14.00">current_sign_in_at :datetime</text>
<text text-anchor="start" x="1750" y="-1495.3" font-family="Times,serif" font-size="14.00">last_sign_in_at :datetime</text>
<text text-anchor="start" x="1750" y="-1480.3" font-family="Times,serif" font-size="14.00">current_sign_in_ip :varchar(255)</text>
<text text-anchor="start" x="1750" y="-1465.3" font-family="Times,serif" font-size="14.00">last_sign_in_ip :varchar(255)</text>
<text text-anchor="start" x="1750" y="-1450.3" font-family="Times,serif" font-size="14.00">created_at :datetime</text>
<text text-anchor="start" x="1750" y="-1435.3" font-family="Times,serif" font-size="14.00">updated_at :datetime</text>
</g>
<!-- Value&#45;&gt;FiltersGroup -->
<g id="edge36" class="edge"><title>Value&#45;&gt;FiltersGroup</title>
<path fill="none" stroke="#6c6554" d="M357.191,-181.098C358.276,-165.545 359.48,-148.288 360.627,-131.848"/>
<ellipse fill="none" stroke="#6c6554" cx="356.9" cy="-185.268" rx="4" ry="4"/>
<polygon fill="#6c6554" stroke="#6c6554" points="360.636,-131.715 365.821,-122.053 360.984,-126.727 361.332,-121.74 361.332,-121.74 361.332,-121.74 360.984,-126.727 356.843,-121.426 360.636,-131.715 360.636,-131.715"/>
</g>
<!-- Value&#45;&gt;FiltersProduct -->
<g id="edge35" class="edge"><title>Value&#45;&gt;FiltersProduct</title>
<path fill="none" stroke="#d35d9f" d="M401.785,-183.359C417.906,-166.452 436.132,-147.337 453.27,-129.363"/>
<ellipse fill="none" stroke="#d35d9f" cx="398.921" cy="-186.363" rx="4.00002" ry="4.00002"/>
<polygon fill="#d35d9f" stroke="#d35d9f" points="453.638,-128.977 463.796,-124.845 457.089,-125.358 460.539,-121.74 460.539,-121.74 460.539,-121.74 457.089,-125.358 457.282,-118.634 453.638,-128.977 453.638,-128.977"/>
</g>
<!-- Value&#45;&gt;FiltersReject -->
<g id="edge38" class="edge"><title>Value&#45;&gt;FiltersReject</title>
<path fill="none" stroke="#63cc2d" d="M279.051,-193.366C226.618,-164.638 163.674,-129.887 151.5,-122 151.413,-121.944 151.327,-121.888 151.24,-121.832"/>
<ellipse fill="none" stroke="#63cc2d" cx="282.865" cy="-195.455" rx="4.00002" ry="4.00002"/>
<polygon fill="#63cc2d" stroke="#63cc2d" points="151.457,-121.976 145.614,-112.696 147.291,-119.211 143.125,-116.446 143.125,-116.446 143.125,-116.446 147.291,-119.211 140.637,-120.195 151.457,-121.976 151.457,-121.976"/>
</g>
<!-- Value&#45;&gt;FiltersSubProduct -->
<g id="edge37" class="edge"><title>Value&#45;&gt;FiltersSubProduct</title>
<path fill="none" stroke="#9f68d6" d="M427.977,-196.135C452.516,-183.96 480.039,-170.621 505.5,-159 544.097,-141.383 554.424,-138.529 593.5,-122 611.945,-114.198 631.735,-105.796 650.484,-97.8216"/>
<ellipse fill="none" stroke="#9f68d6" cx="424.384" cy="-197.923" rx="4.00002" ry="4.00002"/>
<polygon fill="#9f68d6" stroke="#9f68d6" points="650.684,-97.7365 661.648,-97.9622 655.285,-95.7789 659.886,-93.8214 659.886,-93.8214 659.886,-93.8214 655.285,-95.7789 658.124,-89.6806 650.684,-97.7365 650.684,-97.7365"/>
</g>
<!-- Value&#45;&gt;FiltersNews -->
<g id="edge39" class="edge"><title>Value&#45;&gt;FiltersNews</title>
<path fill="none" stroke="#b03be1" d="M428.067,-190.914C452.09,-178.769 479.292,-166.764 505.5,-159 639.81,-119.21 684.038,-161.272 818.5,-122 850.459,-112.666 884.329,-95.7401 908.58,-82.2398"/>
<ellipse fill="none" stroke="#b03be1" cx="424.277" cy="-192.858" rx="4.00002" ry="4.00002"/>
<polygon fill="#b03be1" stroke="#b03be1" points="908.678,-82.1842 919.598,-81.172 913.029,-79.7203 917.38,-77.2563 917.38,-77.2563 917.38,-77.2563 913.029,-79.7203 915.162,-73.3407 908.678,-82.1842 908.678,-82.1842"/>
</g>
<!-- Value&#45;&gt;ProductNews -->
<g id="edge40" class="edge"><title>Value&#45;&gt;ProductNews</title>
<path fill="none" stroke="#0de318" d="M312.513,-180.994C288.223,-149.582 258.581,-111.248 239.624,-86.7318"/>
<polygon fill="#0de318" stroke="#0de318" points="312.786,-181.347 315.343,-192.011 315.844,-185.303 318.903,-189.258 318.903,-189.258 318.903,-189.258 315.844,-185.303 322.463,-186.505 312.786,-181.347 312.786,-181.347"/>
<polygon fill="#0de318" stroke="#0de318" points="239.508,-86.5812 236.95,-75.9177 236.449,-82.6258 233.39,-78.6704 233.39,-78.6704 233.39,-78.6704 236.449,-82.6258 229.831,-81.4231 239.508,-86.5812 239.508,-86.5812"/>
</g>
<!-- Vendor&#45;&gt;BaseCode -->
<g id="edge41" class="edge"><title>Vendor&#45;&gt;BaseCode</title>
<path fill="none" stroke="#1538df" d="M1080.76,-1229.98C1124.78,-1189.42 1170.5,-1131.72 1170.5,-1067 1170.5,-1067 1170.5,-1067 1170.5,-679.5 1170.5,-630.608 1170.5,-575.726 1170.5,-532.464"/>
<ellipse fill="none" stroke="#1538df" cx="1077.54" cy="-1232.9" rx="4.00002" ry="4.00002"/>
<polygon fill="#1538df" stroke="#1538df" points="1170.5,-532.292 1175,-522.292 1170.5,-527.292 1170.5,-522.292 1170.5,-522.292 1170.5,-522.292 1170.5,-527.292 1166,-522.292 1170.5,-532.292 1170.5,-532.292"/>
</g>
<!-- Vendor&#45;&gt;BaseReject -->
<g id="edge42" class="edge"><title>Vendor&#45;&gt;BaseReject</title>
<path fill="none" stroke="#dae18b" d="M918.291,-1267.68C762.106,-1224.31 424.537,-1130.59 272.492,-1088.38"/>
<ellipse fill="none" stroke="#dae18b" cx="922.356" cy="-1268.8" rx="4.00001" ry="4.00001"/>
<polygon fill="#dae18b" stroke="#dae18b" points="272.385,-1088.35 263.953,-1081.34 267.567,-1087.01 262.749,-1085.67 262.749,-1085.67 262.749,-1085.67 267.567,-1087.01 261.545,-1090.01 272.385,-1088.35 272.385,-1088.35"/>
</g>
<!-- Vendor&#45;&gt;CurrencyVendor -->
<g id="edge45" class="edge"><title>Vendor&#45;&gt;CurrencyVendor</title>
<path fill="none" stroke="#8bbfcc" d="M1082.42,-1262.97C1162.83,-1230.15 1273.5,-1166.84 1273.5,-1067 1273.5,-1067 1273.5,-1067 1273.5,-453 1273.5,-406.711 1273.5,-354.867 1273.5,-313.464"/>
<ellipse fill="none" stroke="#8bbfcc" cx="1078.45" cy="-1264.56" rx="4.00001" ry="4.00001"/>
<polygon fill="#8bbfcc" stroke="#8bbfcc" points="1273.5,-313.445 1278,-303.445 1273.5,-308.445 1273.5,-303.445 1273.5,-303.445 1273.5,-303.445 1273.5,-308.445 1269,-303.445 1273.5,-313.445 1273.5,-313.445"/>
</g>
<!-- Vendor&#45;&gt;ProductNew -->
<g id="edge44" class="edge"><title>Vendor&#45;&gt;ProductNew</title>
<path fill="none" stroke="#8c3ea3" d="M919.365,-1244.37C885.556,-1224.21 846.363,-1199.58 812.5,-1175 795.289,-1162.51 777.495,-1148.29 760.872,-1134.37"/>
<ellipse fill="none" stroke="#8c3ea3" cx="923.054" cy="-1246.56" rx="4.00002" ry="4.00002"/>
<polygon fill="#8c3ea3" stroke="#8c3ea3" points="760.454,-1134.01 755.715,-1124.12 756.633,-1130.79 752.813,-1127.56 752.813,-1127.56 752.813,-1127.56 756.633,-1130.79 749.91,-1131 760.454,-1134.01 760.454,-1134.01"/>
<text text-anchor="middle" x="852" y="-1163.8" font-family="Times,serif" font-size="14.00">product_news</text>
</g>
<!-- Vendor&#45;&gt;SubProduct -->
<g id="edge43" class="edge"><title>Vendor&#45;&gt;SubProduct</title>
<path fill="none" stroke="#06ebca" d="M974.135,-1185.56C944.962,-1069.44 898.408,-884.133 870.611,-773.489"/>
<ellipse fill="none" stroke="#06ebca" cx="975.113" cy="-1189.45" rx="4.00001" ry="4.00001"/>
<polygon fill="#06ebca" stroke="#06ebca" points="870.583,-773.378 872.51,-762.583 869.364,-768.529 868.146,-763.679 868.146,-763.679 868.146,-763.679 869.364,-768.529 863.782,-764.776 870.583,-773.378 870.583,-773.378"/>
</g>
</g>
</svg>
